<svg xmlns="http://www.w3.org/2000/svg" viewBox="0 0 512 512" role="img" aria-label="2026 신혼여행 일정">
  <rect width="512" height="512" rx="96" fill="#0d4f45"/>
  <path d="M138 360c42-70 94-120 156-150 32-15 63-22 92-22" fill="none" stroke="#f6f3ed" stroke-width="24" stroke-linecap="round"/>
  <path d="M126 188h88l22-34h72l22 34h56a40 40 0 0 1 40 40v120a40 40 0 0 1-40 40H126a40 40 0 0 1-40-40V228a40 40 0 0 1 40-40Z" fill="#f6f3ed"/>
  <path d="M146 244h220M146 300h150" fill="none" stroke="#0d4f45" stroke-width="22" stroke-linecap="round"/>
  <circle cx="386" cy="188" r="30" fill="#d99a4e"/>
  <circle cx="138" cy="360" r="22" fill="#d99a4e"/>
</svg>
